<?xml version="1.0" encoding="UTF-8"?>
<svg version="1.1" xmlns="http://www.w3.org/2000/svg" width="500" height="500">
<path d="M0 0 C165 0 330 0 500 0 C500 165 500 330 500 500 C335 500 170 500 0 500 C0 335 0 170 0 0 Z " fill="#FEFEFE" transform="translate(0,0)"/>
<path d="M0 0 C1.15242187 0.391875 2.30484375 0.78375 3.4921875 1.1875 C32.66658551 11.6640918 57.09923699 32.15660025 74 58 C74.65226562 58.99128906 75.30453125 59.98257813 75.9765625 61.00390625 C90.62540919 84.71955013 96.54946817 112.41669808 96 140 C95.99484375 141.21171875 95.9896875 142.4234375 95.984375 143.671875 C95.47419686 161.23657949 90.45796675 179.14530146 83 195 C82.53086182 195.99773437 82.53086182 195.99773437 82.05224609 197.015625 C76.63287017 208.34204202 69.88033662 218.24945858 62 228 C61.32710937 228.8353125 60.65421875 229.670625 59.9609375 230.53125 C42.23544991 251.57520786 16.58082981 265.07779339 -9.3359375 272.88671875 C-11.53272246 273.55418539 -13.71718402 274.26869973 -15.8671875 275.07421875 C-20.12876596 276.33356301 -24.33379514 276.73262787 -28.75 277.125 C-29.67522461 277.2084668 -30.60044922 277.29193359 -31.55371094 277.37792969 C-40.3911305 278.11917166 -49.13977732 278.38380688 -58 278 C-59.31484375 277.94328125 -60.6296875 277.8865625 -61.984375 277.828125 C-96.15521922 275.43934537 -127.54364505 257.09031048 -151 233 C-151.48339844 232.57332031 -151.96679688 232.14664063 -152.46484375 231.70703125 C-174.33328338 211.69097709 -186.77575867 177.89295871 -190 149 C-190.24672964 143.1550598 -190.12745579 137.29846256 -190.03710938 131.45068359 C-190.00575482 129.38004559 -189.99297669 127.30913877 -189.984375 125.23828125 C-188.96483753 93.30491108 -174.60495239 63.76870492 -154 40 C-153.46890625 39.34773438 -152.9378125 38.69546875 -152.390625 38.0234375 C-148.66987767 33.48252544 -144.5556343 29.69489234 -140 26 C-139.48775879 25.57589844 -138.97551758 25.15179688 -138.44775391 24.71484375 C-130.21017751 17.95725466 -121.63544652 12.43391913 -112.1875 7.5 C-111.24575928 7.00798096 -110.30401855 6.51596191 -109.33374023 6.0090332 C-75.41699703 -11.19115579 -35.52522231 -12.56320276 0 0 Z " fill="#FDFDFE" transform="translate(297,115)"/>
<path d="M0 0 C1.15242187 0.391875 2.30484375 0.78375 3.4921875 1.1875 C32.66658551 11.6640918 57.09923699 32.15660025 74 58 C74.65226562 58.99128906 75.30453125 59.98257813 75.9765625 61.00390625 C90.62540919 84.71955013 96.54946817 112.41669808 96 140 C95.99484375 141.21171875 95.9896875 142.4234375 95.984375 143.671875 C95.47419686 161.23657949 90.45796675 179.14530146 83 195 C82.53086182 195.99773437 82.53086182 195.99773437 82.05224609 197.015625 C76.63287017 208.34204202 69.88033662 218.24945858 62 228 C61.32710937 228.8353125 60.65421875 229.670625 59.9609375 230.53125 C42.23544991 251.57520786 16.58082981 265.07779339 -9.3359375 272.88671875 C-11.53272246 273.55418539 -13.71718402 274.26869973 -15.8671875 275.07421875 C-20.12876596 276.33356301 -24.33379514 276.73262787 -28.75 277.125 C-29.67522461 277.2084668 -30.60044922 277.29193359 -31.55371094 277.37792969 C-40.3911305 278.11917166 -49.13977732 278.38380688 -58 278 C-59.31484375 277.94328125 -60.6296875 277.8865625 -61.984375 277.828125 C-96.15521922 275.43934537 -127.54364505 257.09031048 -151 233 C-151.48339844 232.57332031 -151.96679688 232.14664063 -152.46484375 231.70703125 C-174.33328338 211.69097709 -186.77575867 177.89295871 -190 149 C-190.24672964 143.1550598 -190.12745579 137.29846256 -190.03710938 131.45068359 C-190.00575482 129.38004559 -189.99297669 127.30913877 -189.984375 125.23828125 C-188.96483753 93.30491108 -174.60495239 63.76870492 -154 40 C-153.46890625 39.34773438 -152.9378125 38.69546875 -152.390625 38.0234375 C-148.66987767 33.48252544 -144.5556343 29.69489234 -140 26 C-139.48775879 25.57589844 -138.97551758 25.15179688 -138.44775391 24.71484375 C-130.21017751 17.95725466 -121.63544652 12.43391913 -112.1875 7.5 C-111.24575928 7.00798096 -110.30401855 6.51596191 -109.33374023 6.0090332 C-75.41699703 -11.19115579 -35.52522231 -12.56320276 0 0 Z M-146.44287109 44.50390625 C-172.28776217 72.44819221 -182.03900539 107.60441204 -181.13623047 144.97705078 C-180.82798822 151.81693525 -179.65892242 158.36916572 -178 165 C-177.82839355 165.69496582 -177.65678711 166.38993164 -177.47998047 167.10595703 C-172.35616348 187.24864778 -163.59050488 205.16163595 -150 221 C-149.30132812 221.82113281 -148.60265625 222.64226562 -147.8828125 223.48828125 C-125.66250011 248.91116536 -93.67630952 266.66203083 -59.66210938 269.25439453 C-20.83053928 271.01896303 14.50193672 260.28196173 43.59765625 234.17578125 C67.84471725 211.803547 85.10355916 180.08088578 86.875 146.71875 C88.16129813 108.4513807 78.28698496 72.85963796 52 44.1875 C28.35586828 19.10461521 -3.87100808 2.29122931 -38.73974609 0.88989258 C-81.14619928 0.04290712 -116.84411494 13.65308766 -146.44287109 44.50390625 Z " fill="#203246" transform="translate(297,115)"/>
<path d="M0 0 C11.88 0 23.76 0 36 0 C42.51466626 14.11511024 42.51466626 14.11511024 45.05224609 20.60498047 C46.71128866 24.79746052 48.52229585 28.9247566 50.3125 33.0625 C53.71214947 40.95818939 57.04524577 48.87663518 60.29296875 56.8359375 C61.5059414 59.80761391 62.74119891 62.76904067 63.98828125 65.7265625 C64.31425293 66.50418945 64.64022461 67.28181641 64.97607422 68.08300781 C65.60246359 69.57628953 66.23280542 71.06792139 66.86767578 72.55761719 C68.10996361 75.53194783 69 77.74251886 69 81 C67.75605469 81.31453125 66.51210938 81.6290625 65.23046875 81.953125 C53.00977932 85.08215771 53.00977932 85.08215771 41.12890625 89.30078125 C39 90 39 90 35 90 C29.89279916 78.80045299 25.19983685 67.57123191 21 56 C20.00573196 53.33114461 19.00324105 50.6655026 18 48 C15.87755883 52.0932794 13.8874289 56.15626424 12.203125 60.44921875 C10.60937977 64.47591335 8.98744694 68.48950912 7.34375 72.49609375 C6.87839844 73.63240234 6.41304688 74.76871094 5.93359375 75.93945312 C4.97923509 78.26814027 4.02350953 80.59626769 3.06640625 82.92382812 C0.88848719 88.24796543 -1.23755706 93.57316462 -3.1796875 98.98828125 C-6.48446935 108.18882748 -9.67438904 114.8229652 -18.10546875 120.14453125 C-29.02692699 127.14546602 -38.66704756 136.04759608 -48 145 C-48.82371094 145.78246094 -49.64742187 146.56492187 -50.49609375 147.37109375 C-58.75508498 155.40106616 -65.86438938 164.25520665 -72 174 C-73.16713744 170.49858768 -72.85342633 170.01799282 -71.41015625 166.78125 C-71.04180664 165.94070068 -70.67345703 165.10015137 -70.29394531 164.23413086 C-69.88756836 163.33186768 -69.48119141 162.42960449 -69.0625 161.5 C-68.22461277 159.59533686 -67.38738703 157.6903826 -66.55078125 155.78515625 C-66.12361816 154.81980957 -65.69645508 153.85446289 -65.25634766 152.85986328 C-63.37286765 148.57243911 -61.55873554 144.25686846 -59.75 139.9375 C-59.44586182 139.21433594 -59.14172363 138.49117187 -58.82836914 137.74609375 C-57.50036 134.58719886 -56.17706944 131.42645713 -54.86303711 128.26171875 C-51.65061273 120.52580688 -48.36874786 112.82123382 -45.0625 105.125 C-44.56298828 103.96097656 -44.06347656 102.79695313 -43.54882812 101.59765625 C-41.7621387 97.43409354 -39.97508683 93.27068645 -38.18734741 89.10757446 C-37.3797993 87.22679596 -36.5726734 85.34583673 -35.765625 83.46484375 C-35.2902832 82.3574585 -34.81494141 81.25007324 -34.32519531 80.10913086 C-33.09598927 77.22520696 -31.88605953 74.3342722 -30.6875 71.4375 C-28.33755514 65.77177533 -25.92092075 60.13564269 -23.5 54.5 C-21.14172116 49.01011841 -18.78458465 43.52107957 -16.5 38 C-14.20534801 32.46255856 -11.85649234 26.94883806 -9.5 21.4375 C-9.13197266 20.57447266 -8.76394531 19.71144531 -8.38476562 18.82226562 C-5.67767248 12.50252075 -2.84667458 6.26268407 0 0 Z " fill="#1D3047" transform="translate(231,152)"/>
<path d="M0 0 C2.60564747 1.30282373 2.72226764 2.33393871 3.76953125 5.015625 C4.2632019 6.26508911 4.2632019 6.26508911 4.7668457 7.53979492 C5.11191162 8.4341626 5.45697754 9.32853027 5.8125 10.25 C6.16852295 11.15790283 6.5245459 12.06580566 6.89135742 13.0012207 C7.93396814 15.66504029 8.96740325 18.33228631 10 21 C10.50975545 22.30104051 11.02008397 23.6018568 11.53125 24.90234375 C13.86447473 30.88478888 15.99707557 36.90006958 18 43 C19.2375 42.56429687 20.475 42.12859375 21.75 41.6796875 C49.7891035 31.96455266 80.05602031 24.25286342 110 26 C106.98945262 27.60374954 103.99786775 28.71576278 100.75 29.75 C89.30962636 33.52643402 78.26212652 37.58593585 67.57910156 43.19628906 C64.49036979 44.80956366 61.46422039 46.23803094 58.17578125 47.3984375 C53.08222059 49.24554614 48.42388166 51.82643935 43.6875 54.4375 C42.72908203 54.9639209 41.77066406 55.4903418 40.78320312 56.03271484 C26.23727684 64.10978447 12.38080449 73.12330387 -1 83 C-2.04800781 83.76054687 -3.09601563 84.52109375 -4.17578125 85.3046875 C-9.91589568 89.52042593 -15.29322039 93.94171312 -20.5234375 98.7734375 C-23.00351751 101.00316243 -25.56797211 103.06183202 -28.1875 105.125 C-33.08013817 109.07970754 -37.55234256 113.36537746 -42 117.8125 C-42.64735107 118.45912598 -43.29470215 119.10575195 -43.96166992 119.77197266 C-47.44893572 123.17864781 -47.44893572 123.17864781 -50.14770508 127.18530273 C-52.67318857 129.65952427 -54.86637104 129.45450962 -58.28605652 129.45318604 C-59.12365005 129.43254089 -59.96124359 129.41189575 -60.82421875 129.390625 C-62.11632011 129.38213531 -62.11632011 129.38213531 -63.43452454 129.37347412 C-66.18608148 129.3510813 -68.93633663 129.3008808 -71.6875 129.25 C-73.55271557 129.2299387 -75.41795155 129.21168728 -77.28320312 129.1953125 C-81.85597042 129.15120713 -86.4277645 129.08216057 -91 129 C-89.75856457 125.27569371 -87.59450219 122.65821078 -85.1875 119.625 C-84.69902588 119.0072168 -84.21055176 118.38943359 -83.70727539 117.75292969 C-78.45773479 111.19872507 -72.81430337 105.05324734 -67 99 C-66.1440625 98.1028125 -65.288125 97.205625 -64.40625 96.28125 C-54.5742252 86.20031318 -43.14899651 76.23621813 -30.89453125 69.22265625 C-27.16105536 66.35579015 -25.83002092 63.50106585 -24 59.25 C-23.49146484 58.1194519 -23.49146484 58.1194519 -22.97265625 56.96606445 C-20.25012241 50.81917378 -17.86026929 44.56290891 -15.56640625 38.24609375 C-5.98002634 11.96005268 -5.98002634 11.96005268 0 0 Z " fill="#29B2F8" transform="translate(248,199)"/>
<path d="M0 0 C0.37769531 0.93714844 0.75539063 1.87429688 1.14453125 2.83984375 C5.68738252 14.0282213 10.52422629 25.07716902 15.40625 36.12109375 C18.32464911 42.72439347 21.20665793 49.34269695 24 56 C24.38027344 56.88171875 24.76054687 57.7634375 25.15234375 58.671875 C26 61 26 61 26 64 C12.8 64 -0.4 64 -14 64 C-19.61416185 50.52601156 -19.61416185 50.52601156 -22.0859375 44.24609375 C-22.91358732 42.21233886 -23.81917598 40.23778774 -24.75 38.25 C-26.11855226 34.69176413 -26.41756745 32.77646165 -26 29 C-24.60375892 26.56605156 -23.25624937 24.5141888 -21.5625 22.3125 C-20.88840088 21.40491943 -20.88840088 21.40491943 -20.20068359 20.47900391 C-4.85623152 0 -4.85623152 0 0 0 Z " fill="#1E3249" transform="translate(315,264)"/>
<path d="M0 0 C2.60564747 1.30282373 2.72226764 2.33393871 3.76953125 5.015625 C4.09864502 5.84876221 4.42775879 6.68189941 4.7668457 7.5402832 C5.11191162 8.43448975 5.45697754 9.32869629 5.8125 10.25 C6.16852295 11.15645264 6.5245459 12.06290527 6.89135742 12.99682617 C7.93560425 15.66151313 8.97001769 18.32977087 10 21 C10.268125 21.69496582 10.53625 22.38993164 10.8125 23.10595703 C11.87044433 25.8535937 12.9229526 28.60318437 13.96875 31.35546875 C14.86076721 33.64295228 15.81043642 35.8842745 16.8125 38.125 C18 41 18 41 18 44 C17.36199463 44.28085449 16.72398926 44.56170898 16.06665039 44.85107422 C4.37173681 50.02804503 -7.10963672 55.25695031 -17.99584961 62.00146484 C-22.83714536 65 -22.83714536 65 -25 65 C-24.52921674 60.40986323 -23.13510017 56.896981 -21.22265625 52.77734375 C-19.76307516 49.4618097 -18.50128742 46.08528448 -17.25 42.6875 C-5.61275299 11.22550598 -5.61275299 11.22550598 0 0 Z " fill="#F8F9FA" transform="translate(248,199)"/>
<path d="M0 0 C-0.53367187 0.40089844 -1.06734375 0.80179688 -1.6171875 1.21484375 C-9.56157758 7.27622096 -17.03163482 13.83253868 -24 21 C-24.78375 21.763125 -25.5675 22.52625 -26.375 23.3125 C-31.97932926 29.05026567 -36.96117569 35.13477044 -41.75 41.5625 C-42.22195801 42.18753418 -42.69391602 42.81256836 -43.18017578 43.45654297 C-46.13419409 47.47649857 -48.20225594 51.34384289 -50 56 C-52.28065075 53.71934925 -52.77964506 52.1576379 -53.8125 49.125 C-55.65566473 43.82590141 -57.82556117 38.73608083 -60.14453125 33.62890625 C-61.08702943 30.73255338 -61.08170035 29.78347933 -60 27 C-58.50390625 25.77075195 -58.50390625 25.77075195 -56.5625 24.73828125 C-55.8413501 24.34624512 -55.1202002 23.95420898 -54.37719727 23.55029297 C-53.59272217 23.14182129 -52.80824707 22.73334961 -52 22.3125 C-50.78364868 21.66112061 -50.78364868 21.66112061 -49.54272461 20.99658203 C-47.85547684 20.09490424 -46.16523779 19.1988032 -44.47216797 18.30810547 C-42.19818928 17.10486848 -39.94255544 15.87418938 -37.69140625 14.62890625 C-6.86324441 -2.28774814 -6.86324441 -2.28774814 0 0 Z " fill="#2BB1F5" transform="translate(339,241)"/>
<path d="M0 0 C1.4477922 2.89558441 2 4.74188938 2 8 C0.75605469 8.31453125 -0.48789062 8.6290625 -1.76953125 8.953125 C-13.99022068 12.08215771 -13.99022068 12.08215771 -25.87109375 16.30078125 C-28 17 -28 17 -32 17 C-32.33 15.02 -32.66 13.04 -33 11 C-25.94281594 6.58925996 -19.11798805 3.57529907 -11.1875 1.1875 C-10.4337207 0.95627441 -9.67994141 0.72504883 -8.90332031 0.48681641 C-3.36618807 -1.12206269 -3.36618807 -1.12206269 0 0 Z " fill="#0E1F32" transform="translate(298,225)"/>
<path d="M0 0 C-0.53367187 0.40089844 -1.06734375 0.80179688 -1.6171875 1.21484375 C-6.86806208 5.22113387 -11.81377103 9.45864829 -16.69140625 13.91015625 C-19.39707498 16.35945028 -22.17252604 18.69337651 -25 21 C-25 19.35 -25 17.7 -25 16 C-24.34 16 -23.68 16 -23 16 C-23 15.01 -23 14.02 -23 13 C-24.11375 13.20625 -25.2275 13.4125 -26.375 13.625 C-27.57125 13.74875 -28.7675 13.8725 -30 14 C-30.66 13.34 -31.32 12.68 -32 12 C-25.10579038 8.37356604 -18.11347214 5.08731142 -10.9375 2.0625 C-10.19959229 1.744021 -9.46168457 1.42554199 -8.70141602 1.09741211 C-3.35379775 -1.11793258 -3.35379775 -1.11793258 0 0 Z " fill="#39B6F3" transform="translate(339,241)"/>
<path d="M0 0 C1.42041821 2.84083641 1.31452272 4.85477278 1 8 C-0.86051629 10.41178038 -2.62741907 11.78266112 -5.25 13.3125 C-8.61376953 15.3766313 -11.33744321 17.90245712 -14.23046875 20.57421875 C-16 22 -16 22 -18 22 C-18 21.34 -18 20.68 -18 20 C-17.34 20 -16.68 20 -16 20 C-15.731875 19.2575 -15.46375 18.515 -15.1875 17.75 C-14.04702351 15.10889655 -12.71322928 13.28430571 -11 11 C-10.731875 10.21625 -10.46375 9.4325 -10.1875 8.625 C-8.17911819 4.18541917 -5.08039228 0 0 0 Z " fill="#0D243B" transform="translate(315,264)"/>
<path d="M0 0 C0.33 0.66 0.66 1.32 1 2 C-1.27372003 7.80190627 -5.06858415 11.07376312 -10.2578125 14.21875 C-14.45122975 16.94267916 -18.26875362 20.13014276 -22.12670898 23.3059082 C-25.06217282 25.674336 -27.30217212 27.26884199 -31 28 C-31 26 -31 26 -29.8125 24.625 C-28.43613349 23.39101623 -27.00958022 22.21274325 -25.5625 21.0625 C-23.05236911 19.12922574 -23.05236911 19.12922574 -21.23828125 17.1796875 C-18.54612294 14.55800454 -15.62204778 12.31719148 -12.625 10.0625 C-8.32207558 6.81017278 -4.12167802 3.48038975 0 0 Z " fill="#0A2841" transform="translate(223,258)"/>
<path d="M0 0 C-3.25195438 1.74743573 -6.55568016 2.91963306 -10.0625 4.0625 C-11.62677734 4.57490234 -11.62677734 4.57490234 -13.22265625 5.09765625 C-14.13917969 5.39542969 -15.05570312 5.69320312 -16 6 C-16.99 6.33 -17.98 6.66 -19 7 C-19.12375 6.071875 -19.12375 6.071875 -19.25 5.125 C-19.81258459 2.81562433 -19.81258459 2.81562433 -22.0625 1.75 C-22.701875 1.5025 -23.34125 1.255 -24 1 C-16.02509872 -0.32915021 -8.05813281 -0.08801359 0 0 Z " fill="#42B7F0" transform="translate(358,225)"/>
<path d="M0 0 C1.32 1.32 2.64 2.64 4 4 C1.19921875 8.20117188 1.19921875 8.20117188 -1.6015625 12.40234375 C-2.14554688 13.21832031 -2.68953125 14.03429687 -3.25 14.875 C-3.77078125 15.65617187 -4.2915625 16.43734375 -4.828125 17.2421875 C-5.40820312 18.11230469 -5.40820312 18.11230469 -6 19 C-7.12642186 15.62073443 -6.96344705 15.27071722 -5.56640625 12.20703125 C-5.0878418 11.1387207 -5.0878418 11.1387207 -4.59960938 10.04882812 C-4.25736328 9.31083984 -3.91511719 8.57285156 -3.5625 7.8125 C-3.22412109 7.06291016 -2.88574219 6.31332031 -2.53710938 5.54101562 C-1.7000589 3.69007302 -0.85114596 1.84450334 0 0 Z " fill="#294660" transform="translate(165,307)"/>
<path d="M0 0 C0.33 0.66 0.66 1.32 1 2 C-0.93582225 6.79747254 -0.93582225 6.79747254 -3 9 C-5.80363945 9.92920622 -7.99804741 9.94996746 -11 10 C-7.50640535 6.40365256 -3.88901869 3.16548033 0 0 Z M-12 10 C-11.67 10.66 -11.34 11.32 -11 12 C-11.66 11.67 -12.32 11.34 -13 11 C-12.67 10.67 -12.34 10.34 -12 10 Z " fill="#0C1F31" transform="translate(223,258)"/>
<path d="M0 0 C0.99 0 1.98 0 3 0 C3.33 0.99 3.66 1.98 4 3 C2.54712339 4.33927721 1.08752741 5.67126847 -0.375 7 C-1.59316406 8.11375 -1.59316406 8.11375 -2.8359375 9.25 C-5 11 -5 11 -7 11 C-7 10.34 -7 9.68 -7 9 C-6.34 9 -5.68 9 -5 9 C-4.731875 8.2575 -4.46375 7.515 -4.1875 6.75 C-3.0392528 4.09090121 -1.96498625 2.12218515 0 0 Z " fill="#0E1D2F" transform="translate(304,275)"/>
<path d="M0 0 C0.99 0 1.98 0 3 0 C4.35439668 2.70879335 4.06501451 5.00933268 4 8 C2.35 8.33 0.7 8.66 -1 9 C-0.67 6.03 -0.34 3.06 0 0 Z " fill="#182738" transform="translate(312,264)"/>
<path d="M0 0 C-1.4566677 1.14795006 -2.91538937 2.29329419 -4.375 3.4375 C-5.18710937 4.07558594 -5.99921875 4.71367187 -6.8359375 5.37109375 C-9 7 -9 7 -11 8 C-11 6.68 -11 5.36 -11 4 C-11.66 3.67 -12.32 3.34 -13 3 C-11.40084119 2.30093058 -9.79544955 1.61610532 -8.1875 0.9375 C-7.29417969 0.55464844 -6.40085937 0.17179688 -5.48046875 -0.22265625 C-3 -1 -3 -1 0 0 Z " fill="#5ABFF1" transform="translate(339,241)"/>
<path d="M0 0 C1.5 1.3125 1.5 1.3125 3 3 C3 3.99 3 4.98 3 6 C2.34 6 1.68 6 1 6 C0.67 7.65 0.34 9.3 0 11 C-2.12508244 7.81237635 -2.5020163 5.73487777 -3 2 C-2.01 1.34 -1.02 0.68 0 0 Z " fill="#42B8F3" transform="translate(281,267)"/>
<path d="M0 0 C0.66 0.33 1.32 0.66 2 1 C-2.62 5.62 -7.24 10.24 -12 15 C-12 12 -12 12 -9.9375 9.75 C-8.96003453 8.83151952 -7.98063409 7.91509667 -7 7 C-5.72522205 5.73312357 -4.45446477 4.46219016 -3.1875 3.1875 C-2.125 2.125 -1.0625 1.0625 0 0 Z " fill="#E4F3F9" transform="translate(327,249)"/>
<path d="M0 0 C1 2 1 2 0.6171875 3.91015625 C0.24980469 4.97556641 0.24980469 4.97556641 -0.125 6.0625 C-0.35445312 6.77535156 -0.58390625 7.48820312 -0.8203125 8.22265625 C-2 10 -2 10 -4.6171875 10.74609375 C-5.40351563 10.82988281 -6.18984375 10.91367187 -7 11 C-6.21258141 9.53936857 -5.4199095 8.08156827 -4.625 6.625 C-4.18414062 5.81289063 -3.74328125 5.00078125 -3.2890625 4.1640625 C-2 2 -2 2 0 0 Z " fill="#2CAAE4" transform="translate(165,316)"/>
<path d="M0 0 C0.66 0.33 1.32 0.66 2 1 C1.01 2.98 0.02 4.96 -1 7 C-3.31 7 -5.62 7 -8 7 C-5.42215154 4.35247996 -3.08351902 2.05567935 0 0 Z " fill="#2BA2DB" transform="translate(214,270)"/>
<path d="M0 0 C1.65 0 3.3 0 5 0 C1.4912812 3.09592835 -1.49197399 4.74194623 -6 6 C-6.33 5.01 -6.66 4.02 -7 3 C-4.69 2.34 -2.38 1.68 0 1 C0 0.67 0 0.34 0 0 Z " fill="#52BCF0" transform="translate(314,239)"/>
<path d="M0 0 C0 3.36403475 -0.61880053 4.40092917 -2.375 7.1875 C-2.81585938 7.90292969 -3.25671875 8.61835938 -3.7109375 9.35546875 C-4.13632812 9.89816406 -4.56171875 10.44085938 -5 11 C-5.66 11 -6.32 11 -7 11 C-7 11.66 -7 12.32 -7 13 C-7.66 13 -8.32 13 -9 13 C-7.50923566 9.7173068 -5.61379679 7.06922559 -3.375 4.25 C-2.74335938 3.45078125 -2.11171875 2.6515625 -1.4609375 1.828125 C-0.97882813 1.22484375 -0.49671875 0.6215625 0 0 Z " fill="#0A304E" transform="translate(304,273)"/>
<path d="M0 0 C0.66 0.99 1.32 1.98 2 3 C-0.31 4.98 -2.62 6.96 -5 9 C-5.66 8.67 -6.32 8.34 -7 8 C-4.69 5.36 -2.38 2.72 0 0 Z " fill="#2EA5DD" transform="translate(176,303)"/>
<path d="M0 0 C0.33 0.66 0.66 1.32 1 2 C-0.89404734 5.34243648 -1.94091591 5.97997149 -5.6875 7.25 C-7.3271875 7.62125 -7.3271875 7.62125 -9 8 C-6.14723863 5.06799526 -3.34920216 2.35684596 0 0 Z " fill="#2FA2DB" transform="translate(205,277)"/>
<path d="M0 0 C-4.72194167 3.77755334 -9.25928072 3.30096975 -15 3 C-5.21459227 -2.08583691 -5.21459227 -2.08583691 0 0 Z " fill="#40B1E9" transform="translate(311,231)"/>
<path d="M0 0 C0.66 0 1.32 0 2 0 C0.50902342 3.7952131 -1.75700849 5.61042731 -5 8 C-5.33 7.01 -5.66 6.02 -6 5 C-5.34 5 -4.68 5 -4 5 C-3.67 4.01 -3.34 3.02 -3 2 C-2.34 2.33 -1.68 2.66 -1 3 C-0.67 2.01 -0.34 1.02 0 0 Z " fill="#0C2F4B" transform="translate(181,295)"/>
<path d="M0 0 C-1.98 0.66 -3.96 1.32 -6 2 C-6 2.66 -6 3.32 -6 4 C-8.64 4 -11.28 4 -14 4 C-11.36711169 2.57385216 -8.65544851 1.41456868 -5.875 0.3125 C-5.19179688 0.04050781 -4.50859375 -0.23148438 -3.8046875 -0.51171875 C-2 -1 -2 -1 0 0 Z " fill="#3190C6" transform="translate(280,239)"/>
<path d="M0 0 C0.33 0.99 0.66 1.98 1 3 C-1.3125 5.0625 -1.3125 5.0625 -4 7 C-4.99 6.67 -5.98 6.34 -7 6 C-4.69 4.02 -2.38 2.04 0 0 Z " fill="#2EA5DE" transform="translate(195,285)"/>
<path d="M0 0 C-2.52788007 2.79872437 -4.20411134 4.45773019 -8 5 C-7.625 3.0625 -7.625 3.0625 -7 1 C-4.53721199 -0.231394 -2.7204945 -0.07159196 0 0 Z " fill="#3BB5F1" transform="translate(267,267)"/>
<path d="M0 0 C2 2 2 2 2 5 C0.03533587 6.06775224 -1.96855359 7.06553465 -4 8 C-4.66 7.67 -5.32 7.34 -6 7 C-5.195625 6.21625 -4.39125 5.4325 -3.5625 4.625 C-1.01309583 2.28017144 -1.01309583 2.28017144 0 0 Z " fill="#499ECB" transform="translate(222,262)"/>
<path d="M0 0 C1.98 0.66 3.96 1.32 6 2 C4.75 3.5625 4.75 3.5625 3 5 C0.8125 4.6875 0.8125 4.6875 -1 4 C-0.67 2.68 -0.34 1.36 0 0 Z " fill="#37B3F4" transform="translate(298,244)"/>
<path d="M0 0 C0.99 0 1.98 0 3 0 C2.42655063 2.86724686 2.1385485 3.8614515 0 6 C-0.99 6 -1.98 6 -3 6 C-3 4 -3 4 -1.5 2.4375 C-0.7575 1.7259375 -0.7575 1.7259375 0 1 C0 0.67 0 0.34 0 0 Z " fill="#0D253F" transform="translate(195,280)"/>
<path d="M0 0 C0.66 0 1.32 0 2 0 C1.4409112 3.24271506 0.5867822 4.93057424 -2 7 C-2.66 7 -3.32 7 -4 7 C-4 6.34 -4 5.68 -4 5 C-3.34 5 -2.68 5 -2 5 C-1.34 3.35 -0.68 1.7 0 0 Z " fill="#092743" transform="translate(189,286)"/>
<path d="M0 0 C0.66 0.33 1.32 0.66 2 1 C2.625 3.5625 2.625 3.5625 3 6 C2.01 5.67 1.02 5.34 0 5 C-0.99 5.495 -0.99 5.495 -2 6 C-1.49396008 3.83125748 -1.00016187 2.00032373 0 0 Z " fill="#303E51" transform="translate(316,270)"/>
<path d="M0 0 C2.97 0 5.94 0 9 0 C5.81237635 2.12508244 3.73487777 2.5020163 0 3 C0 2.01 0 1.02 0 0 Z " fill="#0C273D" transform="translate(266,239)"/>
<path d="M0 0 C0.66 0 1.32 0 2 0 C2.66 2.31 3.32 4.62 4 7 C2.68 6.34 1.36 5.68 0 5 C0 3.35 0 1.7 0 0 Z " fill="#354353" transform="translate(268,158)"/>
</svg>
